<svg width="4295" height="1118" xmlns="http://www.w3.org/2000/svg" xmlns:xlink="http://www.w3.org/1999/xlink" xml:space="preserve" overflow="hidden"><defs><clipPath id="clip0"><rect x="-60" y="1238" width="4295" height="1118"/></clipPath><linearGradient x1="944.5" y1="1276" x2="944.5" y2="2029" gradientUnits="userSpaceOnUse" spreadMethod="reflect" id="fill1"><stop offset="0" stop-color="#D60C71"/><stop offset="0.52" stop-color="#B20A5E"/><stop offset="0.67" stop-color="#7030A0"/><stop offset="1" stop-color="#7030A0"/></linearGradient><linearGradient x1="570.5" y1="1357" x2="570.5" y2="1485" gradientUnits="userSpaceOnUse" spreadMethod="reflect" id="fill2"><stop offset="0" stop-color="#D60C71"/><stop offset="0.52" stop-color="#B20A5E"/><stop offset="0.67" stop-color="#7030A0"/><stop offset="1" stop-color="#7030A0"/></linearGradient><linearGradient x1="180.5" y1="1528" x2="180.5" y2="2318" gradientUnits="userSpaceOnUse" spreadMethod="reflect" id="fill3"><stop offset="0" stop-color="#D60C71"/><stop offset="0.52" stop-color="#B20A5E"/><stop offset="0.67" stop-color="#7030A0"/><stop offset="1" stop-color="#7030A0"/></linearGradient><linearGradient x1="583" y1="1564" x2="583" y2="2037" gradientUnits="userSpaceOnUse" spreadMethod="reflect" id="fill4"><stop offset="0" stop-color="#D60C71"/><stop offset="0.52" stop-color="#B20A5E"/><stop offset="0.67" stop-color="#7030A0"/><stop offset="1" stop-color="#7030A0"/></linearGradient><linearGradient x1="2838" y1="1576" x2="2838" y2="2003" gradientUnits="userSpaceOnUse" spreadMethod="reflect" id="fill5"><stop offset="0" stop-color="#D60C71"/><stop offset="0.52" stop-color="#B20A5E"/><stop offset="0.67" stop-color="#7030A0"/><stop offset="1" stop-color="#7030A0"/></linearGradient><linearGradient x1="1396.5" y1="1577" x2="1396.5" y2="2021" gradientUnits="userSpaceOnUse" spreadMethod="reflect" id="fill6"><stop offset="0" stop-color="#D60C71"/><stop offset="0.52" stop-color="#B20A5E"/><stop offset="0.67" stop-color="#7030A0"/><stop offset="1" stop-color="#7030A0"/></linearGradient><linearGradient x1="3225.5" y1="1586" x2="3225.5" y2="2002" gradientUnits="userSpaceOnUse" spreadMethod="reflect" id="fill7"><stop offset="0" stop-color="#D60C71"/><stop offset="0.52" stop-color="#B20A5E"/><stop offset="0.67" stop-color="#7030A0"/><stop offset="1" stop-color="#7030A0"/></linearGradient><linearGradient x1="3608.5" y1="1587" x2="3608.5" y2="2010" gradientUnits="userSpaceOnUse" spreadMethod="reflect" id="fill8"><stop offset="0" stop-color="#D60C71"/><stop offset="0.52" stop-color="#B20A5E"/><stop offset="0.67" stop-color="#7030A0"/><stop offset="1" stop-color="#7030A0"/></linearGradient><linearGradient x1="4020.5" y1="1588" x2="4020.5" y2="2001" gradientUnits="userSpaceOnUse" spreadMethod="reflect" id="fill9"><stop offset="0" stop-color="#D60C71"/><stop offset="0.52" stop-color="#B20A5E"/><stop offset="0.67" stop-color="#7030A0"/><stop offset="1" stop-color="#7030A0"/></linearGradient><linearGradient x1="2455.5" y1="1591" x2="2455.5" y2="2007" gradientUnits="userSpaceOnUse" spreadMethod="reflect" id="fill10"><stop offset="0" stop-color="#D60C71"/><stop offset="0.52" stop-color="#B20A5E"/><stop offset="0.67" stop-color="#7030A0"/><stop offset="1" stop-color="#7030A0"/></linearGradient><linearGradient x1="1823.5" y1="1594" x2="1823.5" y2="2012" gradientUnits="userSpaceOnUse" spreadMethod="reflect" id="fill11"><stop offset="0" stop-color="#D60C71"/><stop offset="0.52" stop-color="#B20A5E"/><stop offset="0.67" stop-color="#7030A0"/><stop offset="1" stop-color="#7030A0"/></linearGradient><linearGradient x1="2154" y1="1593" x2="2154" y2="1995" gradientUnits="userSpaceOnUse" spreadMethod="reflect" id="fill12"><stop offset="0" stop-color="#D60C71"/><stop offset="0.52" stop-color="#B20A5E"/><stop offset="0.67" stop-color="#7030A0"/><stop offset="1" stop-color="#7030A0"/></linearGradient></defs><g clip-path="url(#clip0)" transform="translate(60 -1238)"><path d="M721.718 1251.02C840.594 1250.15 959.12 1239.17 1078 1238.21 1113.04 1238.09 1148.28 1236.89 1183.08 1241.92 1195.24 1244.03 1208.99 1247.09 1216.56 1257.82 1222.11 1265.06 1220.93 1274.67 1220.83 1283.21 1219.75 1310.94 1217.24 1338.64 1212.93 1366.05 1209.46 1384.9 1204.85 1404.83 1191.86 1419.62 1187.49 1424.98 1180.62 1428.64 1173.57 1427.42 1127.91 1420.8 1081.66 1422.65 1035.7 1422.38 1033.65 1481.29 1033.75 1540.23 1033.42 1599.15 1033.27 1673.55 1032.72 1748.01 1036.3 1822.37 1038.29 1862.03 1041.02 1901.76 1047.34 1941.02 1050.65 1959.9 1054.19 1979.03 1062.34 1996.53 1068.46 2008.01 1065.88 2022.78 1057.78 2032.63 1048.04 2044.41 1033.17 2050.15 1018.9 2054.31 966.469 2066.72 909 2077.03 857.476 2055.59 848.345 2052.28 843.655 2042.98 841.196 2034.21 836.982 2019.04 835.903 2003.25 834.749 1987.63 830.711 1923.3 833.821 1858.84 834.498 1794.49 836.28 1671.92 839.189 1549.38 840.218 1426.84 791.277 1429.17 742.864 1437.14 694.125 1441.56 682.084 1443.16 672.652 1431.93 672.778 1420.55 673.179 1471.19 629.557 1514.63 580.967 1522.33 553.073 1526.69 522.52 1520.45 501.173 1501.22 462.442 1467.18 458.454 1402.27 490.437 1362.44 506.792 1341.73 529.995 1325.78 556.184 1320.84 580.24 1316.33 606.328 1319.47 627.449 1332.33 647.693 1344.56 662.518 1364.92 668.914 1387.61 668.087 1343.16 676.916 1297.53 700.019 1259.1 704.635 1251.78 713.816 1250.65 721.718 1251.02M1057.95 1276.95C947.656 1278.78 837.609 1288.4 727.262 1289.38 710.58 1323.8 704.108 1363.49 709.251 1401.39 759.37 1396.2 809.339 1388.13 859.859 1388.03 870.646 1387.56 880.002 1397.73 878.924 1408.44 877.444 1578.96 873.004 1749.46 871.147 1919.96 871.799 1954.16 871.398 1988.68 877.619 2022.43 906.567 2032.08 937.772 2030.72 967.473 2025.61 987.315 2021.97 1007.86 2019.57 1026.15 2010.44 1018.39 1991.92 1013.73 1972.29 1010.29 1952.56 1003.32 1911.99 1000.36 1870.88 998.176 1829.81 994.614 1760.47 994.74 1691.03 994.915 1621.63 995.191 1556.45 995.041 1491.24 997.073 1426.06 997.75 1416.03 997.097 1405.61 1000.58 1396.03 1003.54 1388.16 1011.97 1383.57 1020.2 1384.02 1069.39 1384.05 1118.73 1382.67 1167.77 1387.58 1179.16 1353.21 1180.24 1316.51 1182.4 1280.68 1141.23 1274.36 1099.44 1276.8 1057.95 1276.95M561.878 1358.88C533.608 1365.74 508.799 1391.24 507.67 1421.1 506.692 1438.77 511.357 1457.78 524.452 1470.39 536.417 1482.72 554.629 1486.56 571.26 1484.85 589.421 1483.27 605.952 1473.34 618.193 1460.16 641.973 1435.66 639.641 1390.91 613.251 1369.2 599.154 1357.52 579.337 1355.27 561.878 1358.88Z" fill="#FFC000" fill-rule="evenodd"/><path d="M102.48 1530.46C164.577 1498.14 235.96 1488.34 305.215 1490.22 323.211 1491.42 345.913 1493.5 355.574 1511.27 360.704 1524.12 360.379 1538.36 361.706 1551.96 378.525 1553.82 395.945 1556.67 410.587 1565.72 417.395 1570 419.498 1578.37 418.947 1585.96 418.396 1706.29 419.623 1826.59 420.699 1946.91 420.749 1971.17 421.65 1995.47 420.073 2019.7 417.445 2064.03 408.21 2107.98 392.566 2149.55 379.376 2184.7 362.306 2219 337.578 2247.54 303.438 2287.31 257.335 2314.6 209.704 2335.09 175.065 2349.1 137.646 2356.57 100.253 2355.97 81.356 2354.24 69.9177 2336.62 61.558 2321.46 44.1628 2288.81 33.9008 2252.23 32.7745 2215.2 32.7997 2208.58 31.4732 2201.47 34.6019 2195.35 37.4802 2189.74 43.1867 2185.5 49.544 2185.1 76.6255 2183.7 104.933 2187.78 130.888 2177.96 153.089 2168.64 174.264 2155.69 190.157 2137.34 206.751 2119.08 216.037 2095.67 223.646 2072.55 231.029 2050.12 236.085 2026.99 239.239 2003.61 200.043 2027.57 152.538 2034.71 107.311 2030.78 68.2906 2027.19 30.7472 2009.28 3.94132 1980.59-32.9767 1940.92-56.0032 1888.4-59.4324 1834.25-63.3868 1762.27-46.8177 1687.87-5.74493 1627.96 21.7869 1587.39 58.7546 1552.89 102.48 1530.46M111.04 1569.53C70.0178 1592.91 36.6292 1628.64 13.6023 1669.7-12.9283 1717.21-23.2151 1772.54-21.4382 1826.59-19.6361 1873.89-0.0383835 1920.1 32.224 1954.63 53.6988 1977.51 84.159 1990.99 115.345 1992.92 158.42 1995.72 205.124 1986.83 237.762 1956.66 244.82 1950.74 250.151 1940.85 260.338 1940.22 271.151 1938.89 281.688 1948.49 281.087 1959.49 279.961 1998.4 274.48 2037.37 263.166 2074.68 254.706 2102.41 244.37 2130.28 226.549 2153.51 205.224 2181.77 174.764 2201.99 142.051 2214.82 119.575 2223.04 95.2471 2223.24 71.6197 2223.29 74.7732 2256.77 85.0352 2290.44 104.908 2317.85 131.089 2317.18 157.219 2313.07 181.997 2304.47 204.598 2296.96 225.473 2285.38 246.122 2273.7 278.359 2254.64 307.368 2229.08 327.266 2197.08 365.685 2133.49 383.581 2058.46 382.63 1984.42 381.579 1854.27 380.027 1724.13 380.502 1593.98 367.462 1590.58 353.997 1589.97 340.606 1589.5 330.044 1589.37 321.059 1579.07 322.785 1568.52 323.862 1555.85 323.036 1543.12 321.083 1530.54 309.195 1528.73 297.156 1528.03 285.142 1528.36 225.173 1529.03 163.651 1539.33 111.04 1569.53Z" fill="#FFC000" fill-rule="evenodd"/><path d="M560.444 1527.65C581.318 1525.26 602.618 1523.48 623.467 1526.89 637.692 1529.65 652.767 1536.38 660.141 1549.59 663.216 1557.92 661.191 1567.02 661.491 1575.68 660.066 1643.44 659.617 1711.21 658.717 1778.98 658.841 1819.99 658.867 1861.12 662.317 1902.02 664.066 1925.1 671.416 1947.67 683.441 1967.38 686.941 1973.43 691.791 1979.55 690.891 1987 689.941 2003.52 678.216 2016.87 665.891 2026.7 647.492 2041.09 626.592 2051.85 605.268 2061.16 584.368 2069.86 562.019 2076.61 539.169 2075.96 518.345 2074.73 504.82 2055.47 498.22 2037.48 486.445 2003.57 479.146 1967.86 478.571 1931.89 477.196 1883.44 477.171 1834.98 477.021 1786.53 476.971 1732.13 476.821 1677.68 479.346 1623.3 480.196 1607.3 481.07 1591.25 483.67 1575.43 485.27 1566.82 487.17 1557.02 494.845 1551.7 513.795 1537.4 537.294 1530.83 560.444 1527.65M521.945 1579.16C518.695 1597.85 518.045 1616.83 517.145 1635.74 514.945 1693.45 515.295 1751.21 515.395 1808.95 515.62 1851.66 515.67 1894.37 517.12 1937.06 517.845 1963.42 523.445 1989.38 530.92 2014.58 533.419 2022.51 536.019 2030.79 541.519 2037.21 558.269 2038.01 574.518 2032.07 589.893 2025.95 611.718 2016.34 633.492 2005.36 650.967 1988.78 644.042 1975.53 637.042 1962.22 632.567 1947.9 624.067 1922.64 623.117 1895.75 621.842 1869.37 620.368 1830.02 620.067 1790.64 620.693 1751.26 621.492 1689.57 622.018 1627.87 623.242 1566.17 607.818 1562.26 591.793 1563.41 576.119 1564.57 557.394 1566.1 538.594 1570.08 521.945 1579.16Z" fill="#FFC000" fill-rule="evenodd"/><path d="M1369.4 1565.33C1395.26 1545.47 1429.11 1538.93 1461.09 1538.13 1470.75 1537 1480.96 1543.51 1482.57 1553.38 1490.8 1605.38 1499.35 1657.41 1511.49 1708.68 1523.94 1761.56 1536.76 1814.39 1551.33 1866.74 1562.87 1905.94 1574.57 1945.62 1594.54 1981.54 1597.35 1875.06 1607.61 1769 1616.91 1662.97 1606.65 1642.73 1597.6 1621.46 1594.03 1598.89 1592.1 1588.8 1594.76 1577 1603.57 1570.84 1613.9 1563.6 1627.05 1562.8 1639.19 1561.42 1668.37 1559.14 1697.7 1558.49 1726.98 1558.74 1739.5 1559.29 1752.59 1558.94 1764.36 1563.93 1775.1 1568.44 1778.88 1580.31 1783.12 1590.15 1799.23 1630.68 1813.35 1671.94 1827.81 1713.07 1844.04 1672.54 1859.09 1631.43 1878.56 1592.31 1885.28 1579.16 1893.44 1563.8 1909.47 1560.9 1936.74 1555.01 1964.94 1556.29 1992.66 1556.41 2008.62 1557.31 2025.47 1556.94 2040.2 1564 2049.13 1568.61 2054.35 1578.83 2052.7 1588.8 2049.68 1614.2 2039.98 1638.17 2031.42 1662.09 2031.4 1663.14 2031.4 1665.25 2031.37 1666.28 2043.54 1779.57 2052.27 1893.37 2052.19 2007.37 2052.52 2023.17 2038.62 2034.64 2024.72 2039.13 2003.92 2045.82 1981.97 2048.8 1960.2 2049.75 1946.87 2050.27 1931.29 2048.17 1922.91 2036.52 1915.41 2026.6 1919.05 2013.65 1919.03 2002.26 1920.91 1939.06 1919.73 1875.78 1916.94 1812.64 1903.04 1853.22 1890.27 1894.14 1877.96 1935.22 1873.29 1951.56 1856.18 1961.08 1839.9 1961.15 1824.34 1961.38 1808.29 1961.05 1793.46 1955.84 1784.8 1952.88 1777.53 1946.05 1774.87 1937.23 1759.97 1894.22 1744.49 1851.41 1729.03 1808.6 1726.88 1868.87 1727.25 1929.24 1729.28 1989.53 1729.11 1999.93 1733.98 2012.35 1725.92 2021.04 1711.25 2036.27 1689.82 2042.53 1669.37 2045.11 1647.25 2047.59 1623.51 2048.35 1603.17 2037.9 1597.4 2034.89 1595.21 2028.41 1593.53 2022.6 1582.77 2033.24 1569.02 2040.05 1555.27 2045.97 1536.51 2053.73 1516.41 2059.79 1495.89 2058.92 1485.2 2057.96 1477.63 2049.05 1472.78 2040.25 1463.65 2023.4 1457.83 2005.04 1451.83 1986.93 1440.87 1951.86 1430.38 1916.61 1421.45 1880.97 1399.55 1880.92 1377.65 1880.77 1355.75 1881.17 1342.6 1926.28 1329.18 1971.67 1323.68 2018.49 1321.5 2034.12 1304.17 2040.73 1290.17 2040.35 1265.03 2040.4 1239.36 2039.2 1215.35 2031.11 1205.19 2027.66 1194.86 2020.57 1192.57 2009.44 1190.64 1998.07 1194 1986.7 1196.46 1975.65 1206.25 1938.11 1219.9 1901.71 1233.24 1865.31 1220.2 1844.55 1208.08 1821.7 1206.9 1796.73 1206.02 1786.74 1213.02 1777.49 1222.28 1774.34 1236.13 1769.5 1251.03 1769.43 1265.51 1768.3 1282.24 1721.61 1297.42 1674.27 1317.39 1628.83 1323.94 1610.77 1345.19 1609.06 1361.24 1605.28 1358.61 1591.71 1356.73 1574.7 1369.4 1565.33M1398.17 1591.51C1399.25 1600.65 1401.33 1609.62 1402.89 1618.68 1404.44 1627.95 1397.17 1637.14 1388.14 1638.9 1375.89 1641.9 1363.4 1643.73 1351.21 1647.01 1331.31 1694.36 1315.26 1743.2 1298.15 1791.6 1296.06 1798.68 1290.22 1804.87 1282.64 1805.7 1270.95 1806.9 1259.13 1806.85 1247.44 1808.15 1252.84 1822.35 1258.93 1836.73 1269.27 1848.13 1274.29 1853.17 1275.94 1860.83 1273.43 1867.49 1258.13 1909.9 1241.27 1952.01 1231.21 1996.07 1249.37 2000.88 1268.24 2001.85 1286.96 2002.08 1294.26 1953.34 1308.21 1905.92 1322.36 1858.8 1324.51 1849.36 1333.62 1843.1 1343.15 1843.27 1370.72 1841.92 1398.37 1842.72 1425.97 1842.54 1434.02 1842.74 1443.41 1841.69 1449.8 1847.75 1454.04 1851.26 1455.4 1856.82 1456.63 1861.96 1463.22 1891.49 1471.93 1920.5 1480.56 1949.5 1487.86 1973.52 1494.91 1997.8 1505.62 2020.59 1525.19 2017.66 1543.86 2010.17 1560.87 2000.23 1540.25 1963.1 1527.6 1922.3 1515.61 1881.77 1501.11 1830.47 1488.61 1778.62 1476.22 1726.77 1464.3 1677.35 1455.35 1627.28 1447.39 1577.08 1430.28 1579.06 1413.45 1583.49 1398.17 1591.51M1919.65 1598.27C1912.1 1608.99 1907.33 1621.34 1901.79 1633.14 1883.38 1675.54 1866.87 1718.78 1850.16 1761.86 1846.47 1770.28 1845.54 1781.12 1837.14 1786.46 1827.6 1793 1812.93 1788.41 1809.14 1777.44 1788.47 1717.4 1768.52 1657.01 1744.74 1598.07 1707.66 1596.01 1670.33 1597.22 1633.35 1600.65 1637.99 1616.2 1642.93 1632.03 1652.36 1645.51 1655.93 1650.09 1656.58 1655.98 1655.9 1661.62 1645.34 1776.79 1634.18 1892.09 1632.59 2007.82 1652.39 2008.92 1672.89 2007.92 1691.33 1999.93 1689.57 1969.82 1689.47 1939.66 1689.27 1909.5 1689.02 1848.33 1689.12 1786.86 1697.67 1726.17 1698.43 1718.33 1701.81 1709.89 1709.64 1706.7 1720.2 1701.52 1733.17 1708.43 1736.38 1719.35 1762.83 1785.88 1785.96 1853.67 1810.04 1921.07 1820.5 1922.53 1831.07 1923.15 1841.63 1922.63 1861.5 1856.17 1882.4 1789.87 1909.12 1725.79 1914.33 1715.52 1917.32 1702.75 1927.48 1696.08 1938.9 1688.97 1955.93 1697.94 1955.83 1711.51 1952.34 1748.19 1955 1785.06 1955.96 1821.78 1958.19 1885 1959.52 1948.3 1957.18 2011.52 1976.33 2010.75 1995.44 2007.97 2013.81 2002.51 2013.41 1893.67 2005.4 1784.98 1993.76 1676.8 1993.19 1668.08 1990.2 1658.79 1994.14 1650.45 2001.89 1632.89 2007.69 1614.55 2012.63 1596.04 1989.3 1594.06 1965.84 1594.29 1942.46 1595.29 1934.83 1595.89 1926.93 1595.79 1919.65 1598.27Z" fill="#FFC000" fill-rule="evenodd"/><path d="M2899.27 1544.65C2920.7 1533.78 2945.74 1536.61 2968.62 1540.3 2986.99 1544.29 3007.87 1551.6 3017.55 1568.92 3022.61 1590.91 3022.19 1613.77 3023.44 1636.24 3024.72 1689.68 3025.92 1743.19 3023.99 1796.66 3021.18 1847.71 3014.59 1899.99 2992.08 1946.51 2975.41 1980.54 2947.14 2009.01 2913.05 2025.5 2881.75 2039.9 2846.48 2043.82 2812.37 2041.71 2777.88 2039.55 2743.26 2026.32 2719.08 2001.05 2692.96 1974.49 2680.08 1938.15 2672.51 1902.35 2663.11 1856.77 2660.55 1810.01 2660.93 1763.55 2657.27 1787.22 2649.32 1809.91 2640.45 1832.02 2639.22 1883.83 2640.1 1935.76 2637.17 1987.54 2636.34 1996.43 2636.41 2006.14 2631.15 2013.8 2623.48 2024.57 2611.17 2030.59 2599.34 2035.59 2579.82 2043.37 2558.14 2048.97 2537.21 2044.3 2526.7 2041.94 2518.96 2033.43 2515.93 2023.34 2480.01 2041.76 2437.87 2043.42 2398.67 2037.12 2360.57 2030.99 2324.08 2011.89 2299.79 1981.47 2270.04 1945.17 2255.13 1898.59 2251.89 1852.18 2248.11 1796.15 2256.13 1738.6 2279.92 1687.42 2297.84 1649.62 2324.33 1614.58 2360.55 1592.74 2421.03 1555.56 2495.57 1545 2564.98 1556.67 2577.51 1558.9 2592.88 1560.71 2599.72 1573.06 2607.46 1589.1 2604.13 1607.67 2602.6 1624.74 2600.12 1643.69 2597.19 1665.73 2580.82 1678.08 2569.26 1686.14 2556.71 1675.72 2544.78 1674.49 2507.23 1668.62 2464.69 1668.42 2432.99 1692.51 2403.81 1713.65 2390.38 1749.77 2386.49 1784.46 2383.26 1815.46 2382.48 1848.01 2393.71 1877.6 2400.23 1894.57 2413.01 1911.06 2431.73 1914.75 2455.17 1918.77 2481.54 1914.15 2499.31 1897.36 2503.52 1893.02 2510.16 1889.08 2509.71 1882.2 2510.01 1870.22 2509.66 1858.25 2509.53 1846.3 2486.05 1844.85 2462.54 1845.95 2439.1 1847.31 2428.48 1848.41 2417.22 1843.64 2411.88 1834.16 2404.81 1821.93 2407.82 1807.12 2410.35 1794.02 2414.81 1774.19 2421.16 1753.23 2436.57 1739.02 2447.27 1730.59 2461.66 1730.04 2474.67 1728.31 2521.01 1724.37 2567.58 1724.21 2614.08 1724.67 2631.5 1725.17 2654.16 1727.5 2661.05 1746.65 2660.3 1718.07 2662.08 1689.48 2663.43 1660.94 2657.34 1642.24 2648.85 1623.61 2649 1603.56 2649.9 1588.87 2663.66 1579.96 2675.81 1574.49 2707.15 1561.56 2742.09 1557.77 2775.55 1562.82 2790.06 1564.9 2797.23 1579.94 2797 1593.34 2797.33 1627.6 2795.25 1661.86 2794.62 1696.13 2793.47 1755.14 2787.63 1815.33 2801.94 1873.31 2806.38 1888.22 2811.47 1905.74 2826.13 1913.65 2839.64 1918.07 2857.08 1914.7 2865.63 1902.5 2880.09 1883.8 2885.31 1860.06 2888.89 1837.19 2896.03 1788.87 2895.38 1739.88 2895.01 1691.18 2894.38 1648.54 2893.73 1605.77 2888.56 1563.37 2887.61 1555.64 2892.3 1547.91 2899.27 1544.65M2928.64 1575.44C2931.58 1607.3 2932.55 1639.27 2933.15 1671.25 2933.78 1725.72 2935.06 1780.44 2928.09 1834.58 2924.46 1860.71 2919.32 1887.34 2906.19 1910.54 2897.46 1926.27 2885.31 1941.33 2868.06 1947.94 2845.8 1956.75 2818.18 1956.9 2798.63 1941.66 2778.76 1926.37 2769.31 1901.73 2763.52 1878.13 2751.89 1827.65 2753.49 1775.44 2755.35 1724.06 2756.5 1682.52 2757.88 1641.01 2758.88 1599.47 2735.02 1598.18 2710.53 1601.02 2688.67 1610.99 2689.12 1630.59 2705.74 1646.93 2701.93 1666.88 2698.85 1705.92 2699 1745.15 2699.33 1784.28 2700.53 1831.32 2703.59 1879.09 2718.05 1924.17 2726.7 1951.32 2743.06 1977.71 2769.11 1991.01 2800.14 2006.9 2836.93 2006.07 2870.34 1999.44 2901.82 1993.32 2929.04 1972.86 2947.39 1947.01 2966.44 1918.87 2974.71 1885.08 2980.08 1851.95 2988.97 1793.89 2986.27 1734.93 2985.97 1676.42 2984.96 1646.13 2985.62 1615.53 2981.33 1585.48 2965.66 1575.9 2946.41 1575.97 2928.64 1575.44M2382.36 1624.49C2352.5 1641.88 2330.95 1670.57 2315.93 1701.2 2293.9 1747.13 2286.86 1799.22 2290.24 1849.72 2293.2 1891.51 2307.14 1934.03 2336.41 1964.85 2356.09 1985.34 2383.63 1996.66 2411.48 2000.15 2441.81 2004.01 2474.27 2002.48 2501.64 1987.52 2510.24 1983.15 2517.2 1976.32 2525.25 1971.03 2535.13 1964.83 2549.51 1970.98 2552.55 1982.1 2554.53 1990.48 2554.02 1999.22 2554.45 2007.78 2569.89 2006.24 2584.68 2000.95 2598.19 1993.44 2601.5 1943.84 2601.1 1894.1 2601.6 1844.42 2602.05 1835.21 2600.04 1825.32 2604.41 1816.79 2612.73 1800.02 2617.97 1781.9 2621.95 1763.67 2605.38 1762.52 2588.76 1762.94 2572.17 1763.02 2538.59 1763.47 2504.87 1763.65 2471.44 1767.36 2466.8 1768.44 2460.21 1767.71 2458.05 1772.96 2451.64 1783.73 2449.33 1796.28 2446.5 1808.33 2469.91 1807 2493.39 1806.49 2516.8 1808.3 2524.95 1809.03 2533.9 1810.16 2540.16 1816.06 2546.46 1822.11 2547.13 1831.39 2547.68 1839.6 2548.31 1855.39 2548.36 1871.23 2548.13 1887.04 2547.96 1904.99 2533.97 1918.37 2521.24 1929.16 2496.85 1950.19 2462.96 1957.2 2431.53 1953.71 2408.7 1951.05 2387.42 1938.45 2373.76 1919.97 2354.16 1894.2 2347.24 1861.16 2346.19 1829.36 2345.24 1794.02 2348.77 1757.9 2362.03 1724.84 2376.24 1688.52 2405.44 1658.05 2441.91 1643.84 2479.88 1629.08 2522.24 1630.72 2561.59 1638.62 2564.13 1624.52 2565.88 1610.23 2566.31 1595.9 2504.3 1584.13 2437.05 1591.61 2382.36 1624.49Z" fill="#FFC000" fill-rule="evenodd"/><path d="M3260.44 1550.38C3294.97 1546.27 3330.95 1544.11 3364.58 1554.73 3376.38 1558.14 3388.44 1567.6 3388.04 1581.08 3388.16 1604.49 3386.23 1627.86 3383.93 1651.14 3382.02 1666.48 3381.2 1682.09 3377.16 1697.07 3374.28 1707.63 3363.65 1712.7 3354.31 1716.32 3333.33 1724.05 3311.38 1730.15 3288.91 1730.52 3279.23 1731.38 3269.66 1723.87 3268.73 1714.11 3267.68 1703.09 3269.26 1691.82 3266.55 1680.98 3266.1 1677.97 3264.35 1676.47 3261.34 1676.44 3245.08 1675.11 3229.29 1682.04 3216.76 1691.97 3198.75 1706.33 3184.31 1725.3 3175.94 1746.81 3165.97 1772.13 3163.01 1799.61 3163.06 1826.64 3163.19 1848.22 3168.52 1869.98 3179.88 1888.42 3188.82 1903.18 3204.83 1912.62 3221.5 1916 3242.12 1920.15 3263.92 1917.61 3283.22 1909.18 3305.14 1899.99 3323.71 1884.74 3340.9 1868.6 3349.52 1860.54 3362.85 1863.66 3372.12 1868.95 3389.26 1879.47 3399.66 1897.38 3409.61 1914.27 3415.4 1924.64 3421.87 1935.28 3422.97 1947.35 3423.49 1957.61 3417.58 1966.75 3410.84 1973.93 3389.62 1996.04 3361.72 2010.06 3333.73 2021.63 3296.85 2037.32 3256.2 2043.44 3216.29 2040.13 3173.11 2037.29 3129.31 2023.49 3096.56 1994.28 3058.14 1960.22 3035.84 1910.46 3030.7 1859.77 3025.59 1808.92 3031.61 1755.94 3053.96 1709.57 3065.28 1688.39 3073.98 1665.7 3088.11 1646.12 3107.31 1617.57 3134.5 1594.98 3165.22 1579.8 3195.01 1564.69 3227.34 1554.78 3260.44 1550.38M3192.13 1609.53C3164.59 1621.71 3139.26 1639.95 3121.89 1664.9 3108.08 1683.17 3100.11 1704.8 3089.31 1724.8 3074.35 1754.79 3068.07 1788.49 3067.46 1821.85 3066.19 1865.71 3076.46 1911.49 3104.2 1946.37 3122.82 1971.22 3150.63 1988.13 3180.55 1995.63 3225.83 2006.8 3274.9 2004.82 3318.07 1986.47 3341.73 1976.81 3365.33 1965.34 3383.65 1947.05 3376.06 1932.59 3368.09 1918.19 3357.49 1905.69 3345.29 1916.26 3332.56 1926.27 3318.57 1934.35 3288.05 1952.64 3251.14 1960.88 3215.96 1954.1 3185.06 1948.75 3156.62 1928.95 3142.61 1900.6 3124.55 1867.47 3122.19 1828.45 3126.35 1791.6 3129.76 1758.78 3139.28 1725.9 3158.38 1698.68 3177.55 1671.6 3204.23 1647.48 3237.36 1640.03 3255.35 1636.29 3276.8 1635.99 3291.31 1649.06 3302.91 1659.35 3305.24 1675.64 3306.72 1690.24 3318.52 1687.68 3330.1 1684.19 3341.5 1680.25 3346.06 1650.44 3348.59 1620.33 3349.62 1590.21 3325.62 1584.01 3300.58 1584.97 3276.15 1587.28 3247.18 1590.09 3218.62 1597.36 3192.13 1609.53Z" fill="#FFC000" fill-rule="evenodd"/><path d="M3680.51 1563.55C3702.32 1553.64 3726.26 1546.94 3750.41 1548.14 3762.4 1548.54 3775.23 1555.64 3778.31 1567.99 3780.11 1577.08 3778.03 1586.36 3777.78 1595.52 3772.2 1683.28 3770.94 1771.34 3773.77 1859.25 3774.85 1883.7 3775.93 1908.22 3779.78 1932.43 3782.84 1949.5 3787.52 1967.22 3799.29 1980.52 3803.33 1985.06 3806.68 1990.78 3805.88 1997.16 3804.68 2013.44 3791 2025.54 3776.9 2031.69 3754.24 2041.5 3729.77 2047.85 3704.98 2048 3695.66 2047.47 3684.79 2046.65 3678.68 2038.51 3661.82 2018.86 3657.34 1992.16 3654.74 1967.22 3651.18 1925.18 3650.88 1882.97 3650.33 1840.83 3623.73 1840.73 3597.13 1840.76 3570.53 1840.81 3570.36 1891.3 3569.43 1942 3575.19 1992.29 3576.65 2009.1 3562.5 2022.43 3547.52 2026.97 3526.43 2033.44 3504.12 2036.51 3482.08 2035.23 3469.5 2034.45 3454.73 2030.16 3449.42 2017.48 3445.56 2007.02 3445.61 1995.65 3444.84 1984.66 3442.23 1932.68 3444.11 1880.53 3442.81 1828.56 3430.64 1808.54 3418.21 1787.63 3414.68 1764.04 3413.23 1755.58 3413.73 1745.95 3419.87 1739.35 3426.05 1732.07 3435.92 1730.24 3444.81 1728.45 3444.68 1700.3 3445.94 1671.99 3444.58 1643.91 3434.92 1622.45 3427.85 1599.13 3429.18 1575.34 3430.26 1563.47 3439.12 1551.2 3451.8 1550.6 3481.4 1547.36 3511.28 1552.81 3539.48 1561.67 3552.25 1566.03 3566.5 1571.58 3573.09 1584.33 3578.17 1593.84 3574.64 1604.68 3574.29 1614.79 3571.91 1651.56 3571.89 1688.4 3571.66 1725.24 3599.11 1725.44 3626.59 1724.82 3654.03 1725.74 3650.6 1679.17 3650.25 1632.26 3655.49 1585.83 3658.92 1574.34 3670.61 1568.59 3680.51 1563.55M3467.63 1588.14C3469.2 1598.11 3471.08 1608.12 3475.16 1617.43 3478.45 1625.79 3484.18 1633.67 3483.55 1643.1 3483.53 1676.68 3483.45 1710.23 3483.05 1743.81 3483.08 1750.09 3481.75 1756.91 3476.72 1761.13 3470.81 1767.08 3461.84 1766 3454.25 1766.7 3459.81 1781.18 3466.37 1795.51 3476.07 1807.76 3479.1 1811.6 3481.73 1816.09 3481.55 1821.21 3482.28 1879.81 3480.22 1938.53 3484.16 1997.06 3501.79 1997.66 3519.42 1995.17 3536.4 1990.41 3530.74 1937.63 3532.14 1884.5 3532.14 1831.52 3532.34 1823.79 3531.49 1814.83 3537.35 1808.79 3542.13 1803.06 3550.02 1802.21 3557.01 1802.34 3593 1802.31 3628.99 1802.21 3665 1802.41 3678.78 1800.33 3691 1812.68 3688.67 1826.5 3688.92 1867.54 3689.37 1908.62 3691.85 1949.6 3693.3 1970.03 3694.93 1991.26 3704.55 2009.78 3724.56 2009.23 3744.07 2003.91 3762.48 1996.25 3749.53 1975.4 3743.09 1951.26 3740.19 1927.04 3735.28 1885.33 3734.65 1843.24 3734.08 1801.28 3733.4 1729.58 3735.1 1657.83 3739.84 1586.29 3723.36 1588.24 3707.28 1592.96 3692.5 1600.44 3688 1648.17 3689.97 1696.16 3693.83 1743.84 3695.08 1752.19 3692.03 1761.61 3684.16 1765.6 3674.85 1771.24 3664.65 1764.27 3654.89 1764.37 3624.86 1763.14 3594.8 1763.91 3564.77 1763.79 3556.26 1763.51 3546.32 1765.19 3539.6 1758.74 3533.69 1753.85 3532.94 1745.77 3533.19 1738.67 3533.59 1693.02 3533.04 1647.27 3536.85 1601.74 3514.84 1593.21 3491.27 1588.12 3467.63 1588.14Z" fill="#FFC000" fill-rule="evenodd"/><path d="M3967.65 1568.07C3991.01 1556.29 4017.06 1548.82 4043.44 1550.15 4088.81 1550.9 4135.82 1564.18 4169.54 1595.77 4206.69 1629.97 4224.16 1680.1 4230.83 1729.03 4238.23 1787.06 4236.87 1847.41 4217.84 1903.18 4206.01 1938.48 4185.98 1971.85 4156.8 1995.45 4120.5 2023.99 4074.32 2038.04 4028.52 2039.72 3984.42 2041.45 3938.42 2035.54 3899.74 2012.99 3860.63 1990.41 3833.8 1950.78 3819.59 1908.64 3802.62 1856.25 3803.74 1799.01 3817.36 1746.02 3823.55 1723.85 3830.07 1701.17 3843.2 1681.96 3848.69 1673.99 3855.51 1666.05 3865.09 1663.04 3876.2 1659.64 3887.95 1659.79 3899.46 1659.18 3903.7 1634.56 3914.35 1610.68 3931.47 1592.29 3941.43 1581.44 3954.76 1574.75 3967.65 1568.07M3994.75 1597.85C3980.08 1604.87 3963.69 1611.18 3954.09 1625.04 3942.63 1640.67 3936.76 1659.81 3936.34 1679.08 3936.34 1688.77 3927.81 1697.37 3918.14 1697.37 3904.8 1697.82 3891.46 1697.54 3878.2 1698.97 3873.16 1706.03 3868.6 1713.5 3865.54 1721.64 3845.23 1773.83 3838.87 1832.48 3853.16 1887.02 3863.84 1924.98 3886.35 1961.88 3921.7 1981.29 3957.05 2000.51 3998.74 2003.52 4038.2 2000.59 4083.17 1996.7 4129.93 1978.09 4156.62 1940.08 4185 1900.12 4195.03 1850.02 4196.41 1801.81 4196.94 1752.46 4192.67 1700.77 4168.76 1656.58 4152.54 1626.06 4123.11 1603.42 4089.64 1595 4058.68 1587.38 4024.51 1584.17 3994.75 1597.85Z" fill="#FFC000" fill-rule="evenodd"/><path d="M2101.25 1560.96C2137.59 1556.52 2174.23 1555.07 2210.79 1554.16 2221.15 1553.24 2232.7 1556.15 2238.71 1565.38 2248.18 1579.5 2243.26 1597.34 2243.53 1613.2 2242.11 1626.19 2245.28 1640.82 2237.58 1652.31 2232.93 1659.51 2224.47 1662.42 2216.45 1663.82 2215.02 1747.36 2211.87 1831.03 2216.12 1914.55 2223.07 1915.38 2230.68 1916.58 2235.63 1922.12 2245.13 1931.93 2245.86 1946.56 2246.78 1959.43 2247.13 1975.71 2247.73 1992.6 2242.41 2008.2 2239.08 2018.51 2229.63 2027.12 2218.5 2027.19 2176.61 2027.92 2134.37 2027.69 2093.05 2035.57 2081.52 2037.95 2069.99 2030.13 2065.91 2019.51 2060.49 2006.02 2060.91 1991.11 2061.09 1976.84 2061.76 1962.87 2062.36 1947.91 2069.99 1935.72 2074.04 1928.85 2082.12 1926.67 2089.02 1923.81 2088.22 1841.14 2087.65 1758.43 2089.6 1675.76 2081.29 1674.56 2072.74 1671.25 2068.39 1663.57 2060.06 1649.12 2061.14 1631.68 2061.06 1615.6 2061.76 1601.66 2061.49 1586.28 2069.77 1574.28 2076.99 1564.4 2090.07 1562.84 2101.25 1560.96M2100.33 1600C2099.38 1611.21 2099.13 1622.45 2099.5 1633.69 2104.13 1633.54 2108.81 1633.14 2113.48 1633.57 2122.74 1634.62 2130.44 1643.73 2129.46 1653.13 2126.74 1686.55 2127.16 1720.09 2126.79 1753.59 2126.71 1811.34 2126.41 1869.09 2127.49 1926.82 2127.41 1935.8 2129.84 1946.56 2122.69 1953.61 2117.33 1959.96 2108.46 1959.53 2101 1960.48 2099.28 1972.02 2099.1 1983.69 2099.5 1995.3 2135.42 1990.14 2171.73 1989.31 2207.97 1988.88 2208.82 1977.17 2208.82 1965.43 2208.09 1953.71 2197.99 1954.29 2185.18 1952.66 2181.33 1941.57 2177.23 1926.19 2177.76 1909.98 2176.68 1894.2 2174.36 1814.75 2176.76 1735.25 2178.21 1655.82 2178.48 1647.26 2176.38 1637.08 2183.23 1630.46 2188.51 1624.11 2197.21 1624.33 2204.72 1624.64 2205.12 1614 2205.54 1603.36 2205.97 1592.72 2170.7 1593.9 2135.29 1595.01 2100.33 1600Z" fill="#FFC000" fill-rule="evenodd"/><path d="M224.427 1623.29C238.036 1621.63 252.048 1621.18 265.482 1624.34 274.246 1626.15 280.925 1634.98 279.896 1643.94 275.1 1693.18 276.506 1742.75 275.677 1792.17 274.698 1811.47 262.494 1827.68 250.818 1842.19 236.881 1859.5 217.571 1873.18 195.424 1877.27 170.766 1881.79 143.32 1877.75 123.482 1861.61 104.348 1845.77 93.325 1821.46 91.3916 1796.94 88.6293 1753.72 100.431 1708.64 128.63 1675.16 151.858 1645.8 187.389 1627.35 224.427 1623.29M180.333 1679.18C151.681 1699.01 134.079 1732.46 130.614 1766.79 128.279 1786.19 128.304 1807.73 140.583 1824.07 151.104 1839.83 172.548 1842.89 189.85 1839.12 206.397 1835.54 218.25 1822.31 227.766 1809.21 232.261 1802.58 237.811 1795.55 237.358 1787.12 237.459 1744.88 237.484 1702.59 239.719 1660.41 218.802 1661.71 197.684 1667.03 180.333 1679.18Z" fill="#FFC000" fill-rule="evenodd"/><path d="M4018.94 1631.18C4050.7 1622.34 4087.92 1632.13 4108.97 1658.2 4130.32 1684.1 4137.37 1718.33 4140.46 1750.95 4143.49 1791.39 4142.77 1832.83 4131.7 1872.11 4123.97 1899.13 4109.49 1925.38 4086.28 1942.03 4064.13 1958.3 4035.8 1964.21 4008.73 1962.8 3988.13 1961.72 3967.93 1954.19 3951.77 1941.38 3917.95 1914.73 3899.95 1871.51 3899.2 1828.96 3897.6 1795.08 3905.95 1761.95 3910.72 1728.68 3915.59 1711.85 3942.79 1712.45 3946.75 1729.58 3952.82 1761.75 3968.5 1791.71 3989.26 1816.78 4002.58 1815.2 4015.7 1812.11 4028.47 1807.91 4010.53 1786.39 3996.58 1761.75 3986.29 1735.73 3978.49 1715.57 3973.87 1693.01 3979.82 1671.74 3984.89 1652.73 3999.89 1636.58 4018.94 1631.18M4025.69 1669.88C4016.1 1675.68 4014.62 1688.37 4015.95 1698.51 4018.76 1718.65 4028.37 1737.01 4038.03 1754.62 4046.11 1769.46 4057.58 1782 4067.62 1795.46 4075.62 1806.13 4070.73 1821.4 4062.47 1830.44 4048.75 1844.68 4028.37 1848.37 4009.93 1852.54 3996.81 1854.73 3981.73 1858.27 3970.01 1849.96 3955.83 1840.11 3946.68 1824.94 3937.72 1810.58 3936.49 1835.44 3939.5 1861.36 3952.12 1883.26 3962.96 1902.55 3980.6 1919.95 4003.26 1923.52 4023.1 1926.26 4044.61 1923.52 4061.64 1912.37 4078.26 1901.39 4088.09 1882.93 4093.89 1864.37 4102.79 1835.11 4104.05 1804.17 4103.32 1773.81 4102.27 1748.14 4099.71 1721.82 4089.04 1698.14 4082.82 1684.3 4071.61 1671.69 4056.33 1668.22 4046.29 1666.14 4035.07 1665.06 4025.69 1669.88Z" fill="#FFC000" fill-rule="evenodd"/><path d="M1389.42 1679.49C1400.07 1672.96 1415.38 1679.97 1417.45 1692.37 1424.4 1721.33 1431.94 1750.17 1439.11 1779.09 1442.71 1789.83 1434.96 1802.71 1423.6 1803.71 1407.69 1804.49 1391.75 1803.41 1375.84 1803.84 1367.54 1803.58 1357.77 1805.14 1351.25 1798.74 1344.59 1793.07 1343.29 1783 1347.18 1775.35 1358.8 1748.06 1368.32 1719.93 1379.53 1692.47 1381.66 1687.42 1384.3 1682.05 1389.42 1679.49M1393.55 1761.94C1389.25 1769.15 1401.82 1762.67 1393.55 1761.94Z" fill="#FFC000" fill-rule="evenodd"/><path d="M1057.52 1276.58C1099.02 1276.43 1140.83 1274 1182 1280.32 1179.84 1316.13 1178.76 1352.83 1167.37 1387.19 1118.32 1382.27 1068.96 1383.65 1019.76 1383.63 1011.53 1383.18 1003.1 1387.76 1000.14 1395.63 996.649 1405.21 997.302 1415.63 996.624 1425.66 994.592 1490.82 994.742 1556.01 994.466 1621.17 994.291 1690.55 994.165 1759.97 997.728 1829.29 999.911 1870.35 1002.87 1911.45 1009.85 1952 1013.28 1971.73 1017.95 1991.35 1025.71 2009.87 1007.41 2018.99 986.864 2021.4 967.016 2025.03 937.308 2030.15 906.094 2031.5 877.138 2021.85 870.916 1988.12 871.317 1953.61 870.665 1919.42 872.521 1748.97 876.963 1578.52 878.443 1408.04 879.522 1397.34 870.163 1387.16 859.374 1387.64 808.839 1387.74 758.857 1395.81 708.724 1401 703.58 1363.1 710.054 1323.43 726.74 1289.02 837.117 1288.04 947.194 1278.41 1057.52 1276.58Z" fill="url(#fill1)" fill-rule="evenodd"/><path d="M561.295 1358.58C578.742 1354.96 598.545 1357.22 612.632 1368.91 639.002 1390.63 641.334 1435.4 617.57 1459.91 605.338 1473.1 588.818 1483.04 570.67 1484.62 554.051 1486.32 535.852 1482.48 523.895 1470.14 510.81 1457.53 506.148 1438.51 507.125 1420.83 508.253 1390.96 533.044 1365.45 561.295 1358.58Z" fill="url(#fill2)" fill-rule="evenodd"/><path d="M110.903 1569.27C163.606 1539.06 225.233 1528.75 285.307 1528.08 297.342 1527.75 309.401 1528.45 321.311 1530.26 323.267 1542.84 324.094 1555.58 323.016 1568.27 321.286 1578.82 330.287 1589.12 340.867 1589.25 354.281 1589.73 367.77 1590.33 380.833 1593.74 380.357 1723.95 381.911 1854.17 382.964 1984.39 383.917 2058.47 365.99 2133.53 327.504 2197.16 307.571 2229.18 278.512 2254.75 246.219 2273.83 225.534 2285.51 204.624 2297.09 181.983 2304.61 157.162 2313.21 130.986 2317.32 104.76 2318 84.853 2290.57 74.5732 2256.88 71.4142 2223.38 95.0826 2223.33 119.453 2223.13 141.968 2214.91 174.738 2202.07 205.251 2181.84 226.612 2153.56 244.464 2130.32 254.819 2102.44 263.293 2074.69 274.626 2037.36 280.117 1998.38 281.245 1959.44 281.847 1948.44 271.292 1938.83 260.46 1940.16 250.256 1940.79 244.915 1950.69 237.845 1956.61 205.151 1986.79 158.365 1995.69 115.216 1992.89 83.9756 1990.95 53.4626 1977.47 31.9502 1954.58-0.368172 1920.03-19.9998 1873.8-21.8051 1826.47-23.5851 1772.39-13.2804 1717.03 13.2962 1669.5 36.363 1628.41 69.8096 1592.66 110.903 1569.27M224.155 1622.87C187.174 1626.93 151.696 1645.36 128.504 1674.69 100.348 1708.13 88.5639 1753.16 91.3216 1796.33 93.2525 1820.83 104.259 1845.12 123.364 1860.94 143.172 1877.06 170.576 1881.1 195.197 1876.58 217.311 1872.5 236.591 1858.83 250.506 1841.53 262.165 1827.04 274.35 1810.85 275.328 1791.57 276.156 1742.2 274.752 1692.69 279.54 1643.5 280.568 1634.55 273.899 1625.73 265.149 1623.92 251.735 1620.76 237.745 1621.21 224.155 1622.87Z" fill="url(#fill3)" fill-rule="evenodd"/><path d="M521.649 1579.67C538.341 1570.61 557.188 1566.63 575.961 1565.1 591.675 1563.95 607.741 1562.8 623.205 1566.7 621.977 1628.29 621.451 1689.89 620.649 1751.48 620.022 1790.79 620.323 1830.09 621.802 1869.38 623.08 1895.72 624.032 1922.56 632.554 1947.77 637.04 1962.07 644.058 1975.36 651 1988.58 633.481 2005.13 611.651 2016.1 589.771 2025.69 574.357 2031.79 558.066 2037.73 541.273 2036.93 535.759 2030.52 533.153 2022.26 530.647 2014.34 523.152 1989.18 517.538 1963.27 516.811 1936.95 515.358 1894.34 515.308 1851.7 515.082 1809.06 514.982 1751.43 514.631 1693.77 516.837 1636.16 517.739 1617.28 518.391 1598.32 521.649 1579.67Z" fill="url(#fill4)" fill-rule="evenodd"/><path d="M2929.04 1576C2946.82 1576.53 2966.07 1576.45 2981.74 1586.01 2986.03 1615.95 2985.38 1646.44 2986.38 1676.63 2986.68 1734.94 2989.39 1793.7 2980.49 1851.56 2975.12 1884.58 2966.85 1918.25 2947.79 1946.29 2929.44 1972.05 2902.21 1992.44 2870.72 1998.54 2837.3 2005.15 2800.5 2005.97 2769.46 1990.14 2743.41 1976.88 2727.03 1950.59 2718.38 1923.52 2703.92 1878.6 2700.86 1831 2699.66 1784.12 2699.33 1745.12 2699.18 1706.02 2702.26 1667.13 2706.07 1647.24 2689.45 1630.96 2689 1611.42 2710.86 1601.49 2735.36 1598.66 2759.23 1599.94 2758.22 1641.34 2756.85 1682.71 2755.69 1724.11 2753.84 1775.31 2752.23 1827.34 2763.87 1877.65 2769.66 1901.16 2779.11 1925.72 2798.99 1940.96 2818.55 1956.14 2846.18 1955.99 2868.44 1947.21 2885.69 1940.63 2897.85 1925.62 2906.58 1909.94 2919.71 1886.83 2924.85 1860.29 2928.49 1834.25 2935.46 1780.29 2934.18 1725.76 2933.55 1671.48 2932.95 1639.61 2931.97 1607.74 2929.04 1576Z" fill="url(#fill5)" fill-rule="evenodd"/><path d="M1398.63 1591.44C1413.88 1583.42 1430.68 1578.98 1447.75 1577 1455.69 1627.25 1464.63 1677.38 1476.52 1726.86 1488.89 1778.76 1501.36 1830.67 1515.83 1882.03 1527.8 1922.6 1540.42 1963.45 1561 2000.61 1544.02 2010.57 1525.4 2018.07 1505.87 2021 1495.17 1998.18 1488.14 1973.88 1480.85 1949.83 1472.24 1920.8 1463.55 1891.76 1456.97 1862.19 1455.74 1857.05 1454.39 1851.48 1450.16 1847.97 1443.77 1841.91 1434.41 1842.96 1426.37 1842.76 1398.83 1842.93 1371.24 1842.13 1343.72 1843.49 1334.21 1843.31 1325.12 1849.58 1322.96 1859.03 1308.84 1906.2 1294.92 1953.67 1287.63 2002.47 1268.96 2002.24 1250.13 2001.27 1232 1996.45 1242.04 1952.34 1258.87 1910.19 1274.14 1867.73 1276.64 1861.06 1274.99 1853.39 1269.98 1848.35 1259.67 1836.94 1253.58 1822.55 1248.2 1808.33 1259.87 1807.02 1271.66 1807.07 1283.33 1805.87 1290.89 1805.04 1296.72 1798.85 1298.8 1791.75 1315.88 1743.31 1331.9 1694.41 1351.76 1647.01 1363.93 1643.73 1376.39 1641.9 1388.61 1638.89 1397.63 1637.13 1404.89 1627.93 1403.34 1618.65 1401.78 1609.57 1399.7 1600.6 1398.63 1591.44M1389.66 1680.01C1384.53 1682.57 1381.88 1687.94 1379.75 1692.98 1368.51 1720.41 1358.97 1748.52 1347.33 1775.78 1343.42 1783.43 1344.72 1793.48 1351.41 1799.15 1357.94 1805.54 1367.73 1803.99 1376.04 1804.24 1391.99 1803.81 1407.97 1804.89 1423.92 1804.12 1435.31 1803.11 1443.07 1790.25 1439.47 1779.52 1432.28 1750.63 1424.72 1721.82 1417.76 1692.88 1415.68 1680.49 1400.33 1673.49 1389.66 1680.01Z" fill="url(#fill6)" fill-rule="evenodd"/><path d="M3192.05 1609.97C3218.6 1597.83 3247.23 1590.57 3276.26 1587.76 3300.75 1585.46 3325.83 1584.51 3349.89 1590.69 3348.86 1620.73 3346.33 1650.78 3341.76 1680.52 3330.33 1684.45 3318.73 1687.93 3306.9 1690.48 3305.42 1675.91 3303.08 1659.66 3291.45 1649.4 3276.91 1636.36 3255.41 1636.66 3237.38 1640.39 3204.18 1647.82 3177.43 1671.88 3158.22 1698.89 3139.08 1726.06 3129.54 1758.85 3126.12 1791.6 3121.96 1828.35 3124.32 1867.28 3142.42 1900.32 3156.46 1928.61 3184.97 1948.37 3215.93 1953.7 3251.19 1960.46 3288.19 1952.25 3318.78 1934 3332.79 1925.94 3345.55 1915.95 3357.78 1905.41 3368.4 1917.87 3376.39 1932.24 3384 1946.66 3365.64 1964.92 3341.98 1976.36 3318.28 1985.99 3275 2004.3 3225.83 2006.27 3180.45 1995.13 3150.46 1987.65 3122.58 1970.77 3103.92 1945.99 3076.12 1911.19 3065.82 1865.53 3067.11 1821.77 3067.71 1788.49 3074.01 1754.87 3089.01 1724.95 3099.83 1705 3107.82 1683.42 3121.65 1665.2 3139.06 1640.31 3164.45 1622.11 3192.05 1609.97Z" fill="url(#fill7)" fill-rule="evenodd"/><path d="M3467.41 1588.86C3491.11 1588.83 3514.74 1593.92 3536.81 1602.44 3532.99 1647.91 3533.54 1693.61 3533.14 1739.2 3532.89 1746.3 3533.64 1754.37 3539.57 1759.26 3546.3 1765.7 3556.26 1764.02 3564.8 1764.3 3594.9 1764.42 3625.03 1763.65 3655.14 1764.87 3664.93 1764.77 3675.15 1771.74 3684.49 1766.1 3692.37 1762.12 3695.44 1752.72 3694.18 1744.37 3690.31 1696.74 3688.33 1648.81 3692.85 1601.14 3707.66 1593.67 3723.78 1588.96 3740.3 1587 3735.56 1658.47 3733.85 1730.13 3734.53 1801.75 3735.11 1843.66 3735.73 1885.69 3740.65 1927.36 3743.57 1951.54 3750.02 1975.66 3763 1996.49 3744.55 2004.13 3724.99 2009.45 3704.93 2010 3695.28 1991.5 3693.65 1970.29 3692.2 1949.89 3689.71 1908.96 3689.26 1867.92 3689.01 1826.94 3691.34 1813.13 3679.09 1800.79 3665.28 1802.87 3629.18 1802.67 3593.1 1802.77 3557.02 1802.8 3550.01 1802.67 3542.1 1803.53 3537.31 1809.24 3531.43 1815.28 3532.29 1824.23 3532.08 1831.95 3532.08 1884.87 3530.68 1937.93 3536.35 1990.65 3519.33 1995.41 3501.65 1997.89 3483.98 1997.29 3480.04 1938.84 3482.1 1880.18 3481.37 1821.65 3481.54 1816.54 3478.91 1812.05 3475.87 1808.21 3466.15 1795.98 3459.57 1781.67 3454 1767.2 3461.61 1766.5 3470.6 1767.58 3476.52 1761.64 3481.57 1757.43 3482.9 1750.61 3482.87 1744.34 3483.28 1710.8 3483.35 1677.29 3483.38 1643.75 3484 1634.33 3478.25 1626.46 3474.96 1618.11 3470.87 1608.81 3468.99 1598.81 3467.41 1588.86Z" fill="url(#fill8)" fill-rule="evenodd"/><path d="M3994.31 1597.41C4024.06 1583.74 4058.23 1586.94 4089.19 1594.56 4122.66 1602.97 4152.09 1625.61 4168.31 1656.12 4192.22 1700.3 4196.49 1751.97 4195.96 1801.32 4194.58 1849.5 4184.55 1899.6 4156.18 1939.55 4129.48 1977.54 4082.72 1996.15 4037.75 2000.03 3998.29 2002.96 3956.6 1999.96 3921.26 1980.75 3885.91 1961.34 3863.4 1924.44 3852.72 1886.5 3838.43 1831.97 3844.8 1773.34 3865.1 1721.17 3868.16 1713.03 3872.72 1705.56 3877.76 1698.5 3891.02 1697.07 3904.36 1697.35 3917.7 1696.9 3927.37 1696.9 3935.9 1688.31 3935.9 1678.61 3936.32 1659.35 3942.19 1640.22 3953.64 1624.59 3963.25 1610.74 3979.64 1604.42 3994.31 1597.41M4018.35 1631.55C3999.32 1636.94 3984.33 1653.04 3979.26 1672 3973.32 1693.21 3977.94 1715.71 3985.73 1735.82 3996.01 1761.77 4009.95 1786.34 4027.87 1807.8 4015.11 1811.99 4002 1815.07 3988.69 1816.64 3967.96 1791.65 3952.29 1761.77 3946.22 1729.68 3942.26 1712.6 3915.09 1712 3910.23 1728.78 3905.46 1761.97 3897.11 1795 3898.72 1828.79 3899.47 1871.22 3917.45 1914.33 3951.24 1940.9 3967.38 1953.67 3987.56 1961.19 4008.14 1962.26 4035.19 1963.67 4063.5 1957.78 4085.63 1941.55 4108.82 1924.94 4123.28 1898.77 4131.01 1871.82 4142.06 1832.65 4142.79 1791.32 4139.75 1751 4136.67 1718.46 4129.63 1684.32 4108.29 1658.5 4087.26 1632.5 4050.08 1622.73 4018.35 1631.55Z" fill="url(#fill9)" fill-rule="evenodd"/><path d="M2382.05 1624.73C2436.83 1591.94 2504.17 1584.48 2566.27 1596.22 2565.85 1610.51 2564.09 1624.76 2561.56 1638.83 2522.15 1630.94 2479.72 1629.32 2441.7 1644.04 2405.17 1658.2 2375.93 1688.6 2361.7 1724.82 2348.42 1757.79 2344.88 1793.81 2345.83 1829.06 2346.89 1860.78 2353.82 1893.72 2373.44 1919.43 2387.12 1937.86 2408.44 1950.42 2431.3 1953.08 2462.78 1956.56 2496.72 1949.57 2521.14 1928.59 2533.89 1917.83 2547.9 1904.49 2548.08 1886.59 2548.3 1870.82 2548.25 1855.02 2547.62 1839.27 2547.07 1831.09 2546.39 1821.83 2540.09 1815.79 2533.82 1809.91 2524.86 1808.78 2516.7 1808.06 2493.25 1806.25 2469.73 1806.76 2446.29 1808.08 2449.13 1796.07 2451.44 1783.55 2457.86 1772.81 2460.02 1767.58 2466.62 1768.3 2471.27 1767.23 2504.75 1763.52 2538.51 1763.35 2572.15 1762.9 2588.77 1762.82 2605.41 1762.4 2622 1763.55 2618.01 1781.72 2612.76 1799.8 2604.43 1816.52 2600.06 1825.03 2602.07 1834.89 2601.62 1844.08 2601.12 1893.62 2601.52 1943.24 2598.2 1992.71 2584.67 2000.19 2569.86 2005.47 2554.4 2007 2553.97 1998.46 2554.48 1989.75 2552.49 1981.39 2549.46 1970.3 2535.05 1964.17 2525.16 1970.35 2517.1 1975.63 2510.12 1982.44 2501.51 1986.8 2474.1 2001.72 2441.6 2003.25 2411.22 1999.39 2383.33 1995.91 2355.75 1984.62 2336.04 1964.19 2306.72 1933.45 2292.77 1891.04 2289.81 1849.36 2286.42 1798.99 2293.47 1747.05 2315.54 1701.24 2330.57 1670.7 2352.16 1642.08 2382.05 1624.73Z" fill="url(#fill10)" fill-rule="evenodd"/><path d="M1919.9 1597.74C1927.17 1595.25 1935.07 1595.36 1942.69 1594.75 1966.06 1593.75 1989.5 1593.52 2012.82 1595.51 2007.88 1614.06 2002.09 1632.44 1994.34 1650.04 1990.41 1658.41 1993.39 1667.72 1993.97 1676.46 2005.6 1784.91 2013.6 1893.86 2014 2002.96 1995.65 2008.43 1976.54 2011.22 1957.41 2012 1959.74 1948.62 1958.41 1885.17 1956.18 1821.79 1955.23 1784.98 1952.57 1748.02 1956.05 1711.26 1956.15 1697.65 1939.13 1688.66 1927.72 1695.79 1917.57 1702.47 1914.58 1715.28 1909.37 1725.57 1882.66 1789.8 1861.78 1856.27 1841.92 1922.89 1831.36 1923.41 1820.8 1922.79 1810.35 1921.33 1786.28 1853.76 1763.16 1785.81 1736.73 1719.12 1733.52 1708.17 1720.56 1701.24 1710 1706.44 1702.18 1709.63 1698.79 1718.09 1698.04 1725.95 1689.49 1786.79 1689.39 1848.41 1689.64 1909.73 1689.84 1939.96 1689.94 1970.19 1691.7 2000.37 1673.27 2008.38 1652.78 2009.39 1633 2008.28 1634.58 1892.28 1645.74 1776.7 1656.29 1661.24 1656.97 1655.59 1656.32 1649.69 1652.76 1645.1 1643.33 1631.59 1638.39 1615.72 1633.75 1600.13 1670.71 1596.69 1708.02 1595.48 1745.08 1597.54 1768.85 1656.62 1788.79 1717.16 1809.45 1777.35 1813.23 1788.35 1827.9 1792.94 1837.43 1786.39 1845.83 1781.04 1846.76 1770.17 1850.44 1761.73 1867.14 1718.54 1883.64 1675.2 1902.04 1632.69 1907.59 1620.87 1912.35 1608.49 1919.9 1597.74Z" fill="url(#fill11)" fill-rule="evenodd"/><path d="M2100.01 1600.26C2135.2 1595.28 2170.84 1594.18 2206.33 1593 2205.9 1603.62 2205.47 1614.24 2205.07 1624.87 2197.52 1624.56 2188.76 1624.34 2183.45 1630.68 2176.55 1637.29 2178.67 1647.46 2178.39 1656 2176.93 1735.32 2174.51 1814.7 2176.85 1894.04 2177.94 1909.8 2177.41 1925.98 2181.54 1941.34 2185.41 1952.41 2198.3 1954.04 2208.47 1953.46 2209.2 1965.16 2209.2 1976.89 2208.34 1988.59 2171.87 1989.01 2135.32 1989.84 2099.18 1995 2098.78 1983.4 2098.95 1971.75 2100.69 1960.23 2108.19 1959.28 2117.13 1959.7 2122.51 1953.36 2129.71 1946.33 2127.27 1935.58 2127.35 1926.61 2126.26 1868.97 2126.57 1811.3 2126.64 1753.63 2127.02 1720.19 2126.59 1686.69 2129.33 1653.32 2130.32 1643.93 2122.56 1634.84 2113.25 1633.78 2108.54 1633.36 2103.84 1633.76 2099.18 1633.91 2098.8 1622.69 2099.05 1611.46 2100.01 1600.26Z" fill="url(#fill12)" fill-rule="evenodd"/></g></svg>